<svg width="570" height="223" viewBox="0 0 570 223" fill="none" xmlns="http://www.w3.org/2000/svg">
<path fill-rule="evenodd" clip-rule="evenodd" d="M241.8 95.9815C215.053 97.0521 188.62 98.3685 162.843 99.8077C126.353 101.844 89.8776 103.95 53.6218 107.284C42.2092 108.337 30.6197 109.004 19.2785 110.321C12.1592 111.146 2.71918 112.321 1.4803 112.567C0.832313 112.707 0.549619 112.918 0.458273 112.988C-0.184004 113.48 -0.0668122 113.953 0.295718 114.322C0.4413 114.48 0.809436 114.866 1.83137 114.919C70.1754 118.517 140.061 111.497 208.488 110.759C327.152 109.496 449.413 114.515 567.135 125.467C568.163 125.555 569.162 125.116 569.304 124.467C569.476 123.835 568.734 123.22 567.706 123.133C449.784 112.163 327.323 107.126 208.43 108.407C144.66 109.092 79.6297 115.252 15.7702 113.146C17.2374 112.971 18.6762 112.795 19.9893 112.637C31.2848 111.321 42.8258 110.672 54.1927 109.619C90.3714 106.284 126.773 104.178 163.214 102.159C208.431 99.6321 255.616 97.4558 303.173 96.4378C320.187 96.5958 337.143 96.7538 354.099 96.9469C390.78 97.3681 427.633 98.5966 464.228 100.246C475.247 100.755 486.265 101.282 497.284 101.738C500.938 101.896 510.358 102.352 511.671 102.317C513.298 102.282 513.612 101.44 513.64 101.299C513.726 100.984 513.669 100.545 512.87 100.176C512.784 100.124 512.27 99.9479 511.128 99.8426C444.589 93.6296 373.539 92.5942 303.231 94.0861C229.069 93.4367 154.622 93.1557 80.6488 92.8574C79.5898 92.8574 78.7248 93.384 78.7163 94.0333C78.7106 94.6827 79.564 95.2093 80.623 95.2269C134.186 95.4375 188.02 95.648 241.8 95.9815Z" fill="#427E82"/>
</svg>
